<?xml version="1.0" encoding="UTF-8" standalone="no"?>
<svg
   xmlns:dc="http://purl.org/dc/elements/1.1/"
   xmlns:cc="http://creativecommons.org/ns#"
   xmlns:rdf="http://www.w3.org/1999/02/22-rdf-syntax-ns#"
   xmlns:svg="http://www.w3.org/2000/svg"
   xmlns="http://www.w3.org/2000/svg"
   xmlns:sodipodi="http://sodipodi.sourceforge.net/DTD/sodipodi-0.dtd"
   xmlns:inkscape="http://www.inkscape.org/namespaces/inkscape"
   version="1.1"
   id="svg2"
   xml:space="preserve"
   width="226.77068"
   height="55.411999"
   viewBox="0 0 226.77068 55.411999"
   sodipodi:docname="Logo re-model 60mm.svg"
   inkscape:version="1.0.2-2 (e86c870879, 2021-01-15)"><metadata
     id="metadata8"><rdf:RDF><cc:Work
         rdf:about=""><dc:format>image/svg+xml</dc:format><dc:type
           rdf:resource="http://purl.org/dc/dcmitype/StillImage" /><dc:title></dc:title></cc:Work></rdf:RDF></metadata><defs
     id="defs6" /><sodipodi:namedview
     pagecolor="#ffffff"
     bordercolor="#666666"
     borderopacity="1"
     objecttolerance="10"
     gridtolerance="10"
     guidetolerance="10"
     inkscape:pageopacity="0"
     inkscape:pageshadow="2"
     inkscape:window-width="2560"
     inkscape:window-height="1377"
     id="namedview4"
     showgrid="false"
     inkscape:zoom="0.5931102"
     inkscape:cx="-315.52687"
     inkscape:cy="-463.95957"
     inkscape:window-x="-8"
     inkscape:window-y="-8"
     inkscape:window-maximized="1"
     inkscape:current-layer="g12" /><g
     id="g10"
     inkscape:groupmode="layer"
     inkscape:label="Logo re-model 60mm"
     transform="matrix(1.3333333,0,0,1.3333333,0,1.0519666e-6)"><g
       id="g12"><g
         id="g848"><path
           d="m 48.047,9.758 c -0.363,0 -0.727,0.019 -1.086,0.066 v 0.067 c -0.684,0.132 -1.363,0.312 -2.043,0.535 -0.633,0.226 -1.27,0.515 -1.906,0.871 -1.043,0.672 -1.973,1.48 -2.789,2.418 -0.817,0.894 -1.477,1.898 -1.973,3.019 -0.184,0.582 -0.344,1.164 -0.477,1.743 -0.093,0.539 -0.136,1.097 -0.136,1.679 V 41.09 h 5.785 V 21.766 c -0.047,-0.043 -0.07,-0.11 -0.07,-0.203 v -0.2 c 0,-0.492 0.023,-0.941 0.07,-1.34 0.09,-0.449 0.203,-0.894 0.336,-1.343 0.363,-0.895 0.91,-1.68 1.637,-2.348 0.726,-0.672 1.566,-1.121 2.515,-1.344 0.227,-0.09 0.457,-0.133 0.684,-0.133 0.269,-0.046 0.543,-0.066 0.816,-0.066 h 0.34 c 0.133,0 0.25,0.02 0.34,0.066 0.09,0 0.18,0.02 0.269,0.067 h 0.411 c 0.406,0.047 0.816,0.156 1.222,0.336 0.41,0.18 0.774,0.402 1.09,0.672 0.68,0.625 1.203,1.386 1.566,2.281 0.407,0.852 0.633,1.742 0.68,2.684 V 41.09 h 5.781 V 20.625 c 0,-0.852 0.184,-1.656 0.547,-2.414 0.364,-0.762 0.84,-1.41 1.43,-1.945 0.543,-0.493 1.133,-0.852 1.769,-1.075 0.68,-0.269 1.36,-0.406 2.04,-0.406 0.23,0 0.433,0.024 0.613,0.07 0.183,0 0.363,0.02 0.547,0.067 0.906,0.133 1.722,0.469 2.449,1.008 0.769,0.535 1.383,1.183 1.836,1.945 0.226,0.578 0.41,1.164 0.543,1.742 0.137,0.586 0.23,1.164 0.273,1.746 V 41.09 h 5.649 V 19.016 c -0.184,-0.852 -0.434,-1.657 -0.746,-2.418 -0.278,-0.758 -0.641,-1.496 -1.094,-2.211 -0.36,-0.492 -0.77,-0.942 -1.223,-1.344 -0.453,-0.445 -0.929,-0.852 -1.429,-1.211 -0.454,-0.355 -0.954,-0.644 -1.497,-0.867 -0.543,-0.27 -1.136,-0.473 -1.769,-0.606 -0.77,-0.222 -1.567,-0.355 -2.383,-0.402 -0.769,-0.09 -1.562,-0.113 -2.379,-0.066 -1.543,0.132 -2.996,0.535 -4.355,1.207 -1.364,0.668 -2.539,1.586 -3.539,2.75 -0.907,-1.028 -1.977,-1.879 -3.2,-2.551 C 53.969,10.629 52.652,10.156 51.246,9.891 50.93,9.844 50.59,9.824 50.227,9.824 49.859,9.777 49.5,9.758 49.137,9.758 Z m 91.277,0 c -0.363,0 -0.726,0.019 -1.09,0.066 v 0.067 c -0.679,0.132 -1.359,0.312 -2.043,0.535 -0.632,0.226 -1.269,0.515 -1.906,0.871 -1.043,0.672 -1.969,1.48 -2.789,2.418 -0.816,0.894 -1.473,1.898 -1.973,3.019 -0.183,0.582 -0.339,1.164 -0.476,1.743 -0.09,0.539 -0.137,1.097 -0.137,1.679 V 41.09 h 5.785 V 21.766 c -0.047,-0.043 -0.07,-0.11 -0.07,-0.203 v -0.2 c 0,-0.492 0.023,-0.941 0.07,-1.34 0.09,-0.449 0.203,-0.894 0.34,-1.343 0.363,-0.895 0.906,-1.68 1.633,-2.348 0.727,-0.672 1.566,-1.121 2.52,-1.344 0.222,-0.09 0.453,-0.133 0.679,-0.133 0.27,-0.046 0.543,-0.066 0.817,-0.066 h 0.339 c 0.137,0 0.25,0.02 0.34,0.066 0.094,0 0.18,0.02 0.274,0.067 h 0.406 c 0.41,0.047 0.82,0.156 1.227,0.336 0.406,0.18 0.769,0.402 1.085,0.672 0.684,0.625 1.204,1.386 1.567,2.281 0.41,0.852 0.637,1.742 0.68,2.684 V 41.09 h 5.785 V 20.625 c 0,-0.852 0.179,-1.656 0.547,-2.414 0.359,-0.762 0.836,-1.41 1.425,-1.945 0.543,-0.493 1.137,-0.852 1.77,-1.075 0.68,-0.269 1.363,-0.406 2.043,-0.406 0.226,0 0.43,0.024 0.613,0.07 0.18,0 0.36,0.02 0.543,0.067 0.906,0.133 1.723,0.469 2.449,1.008 0.774,0.535 1.383,1.183 1.836,1.945 0.231,0.578 0.41,1.164 0.547,1.742 0.137,0.586 0.227,1.164 0.274,1.746 V 41.09 h 5.644 V 19.016 c -0.18,-0.852 -0.43,-1.657 -0.746,-2.418 -0.273,-0.758 -0.637,-1.496 -1.09,-2.211 -0.363,-0.492 -0.769,-0.942 -1.226,-1.344 -0.453,-0.445 -0.93,-0.852 -1.43,-1.211 -0.453,-0.355 -0.949,-0.644 -1.496,-0.867 -0.543,-0.27 -1.133,-0.473 -1.77,-0.606 -0.769,-0.222 -1.562,-0.355 -2.379,-0.402 -0.769,-0.09 -1.566,-0.113 -2.382,-0.066 -1.543,0.132 -2.993,0.535 -4.356,1.207 -1.359,0.668 -2.539,1.586 -3.539,2.75 -0.906,-1.028 -1.973,-1.879 -3.199,-2.551 -1.223,-0.668 -2.539,-1.141 -3.945,-1.406 -0.317,-0.047 -0.657,-0.067 -1.02,-0.067 -0.363,-0.047 -0.727,-0.066 -1.09,-0.066 z M 16.805,9.824 v 0.067 c -0.996,-0.047 -1.992,0 -2.992,0.132 -0.997,0.133 -1.973,0.336 -2.926,0.606 -0.77,0.18 -1.543,0.445 -2.313,0.805 C 7.848,11.793 7.168,12.215 6.531,12.707 5.898,13.156 5.285,13.648 4.695,14.184 4.148,14.719 3.629,15.305 3.129,15.93 2.629,16.645 2.176,17.406 1.77,18.211 1.359,18.969 1.02,19.773 0.75,20.625 0.523,21.43 0.34,22.258 0.203,23.109 0.066,23.914 0,24.738 0,25.59 c 0,0.941 0.066,1.879 0.203,2.82 0.137,0.895 0.34,1.789 0.613,2.68 0.27,0.762 0.614,1.523 1.02,2.285 0.406,0.715 0.863,1.406 1.363,2.078 0.496,0.629 1.043,1.231 1.629,1.813 0.594,0.539 1.203,1.05 1.84,1.543 0.727,0.535 1.473,1.007 2.246,1.41 0.816,0.402 1.656,0.691 2.516,0.871 0.5,0.133 1,0.223 1.5,0.265 0.543,0.094 1.086,0.161 1.633,0.204 h 0.746 c 0.273,0 0.543,-0.02 0.816,-0.067 1.316,-0.09 2.586,-0.336 3.813,-0.738 1.222,-0.402 2.359,-0.984 3.402,-1.746 V 32.57 c -0.363,0.535 -0.817,1.047 -1.363,1.543 -0.497,0.446 -1.043,0.848 -1.633,1.207 -0.543,0.313 -1.11,0.559 -1.699,0.735 -0.543,0.179 -1.137,0.293 -1.77,0.336 h -0.41 c -0.043,0.047 -0.113,0.066 -0.203,0.066 h -0.203 c -0.543,0 -1.09,-0.043 -1.633,-0.133 -0.543,-0.09 -1.067,-0.222 -1.567,-0.402 C 12.227,35.742 11.613,35.5 11.023,35.188 10.43,34.871 9.891,34.492 9.391,34.047 8.938,33.598 8.508,33.129 8.098,32.637 7.688,32.098 7.324,31.539 7.008,30.957 6.691,30.332 6.441,29.703 6.258,29.078 6.078,28.41 5.965,27.738 5.918,27.066 5.875,26.93 5.828,26.797 5.781,26.664 v -1.476 c 0,-1.165 0.16,-2.282 0.477,-3.356 0.32,-1.074 0.773,-2.078 1.359,-3.019 0.774,-1.165 1.774,-2.055 2.996,-2.684 1.227,-0.668 2.543,-1.027 3.95,-1.074 h 0.406 c 0.183,-0.043 0.34,-0.067 0.476,-0.067 0.137,-0.047 0.274,-0.066 0.407,-0.066 h 0.476 c 0.367,0 0.727,0.019 1.09,0.066 0.41,0 0.773,0.047 1.09,0.133 1.359,0.227 2.609,0.719 3.742,1.477 1.137,0.761 2.043,1.722 2.723,2.886 0.363,0.582 0.632,1.207 0.816,1.879 0.227,0.672 0.363,1.321 0.406,1.946 V 41.09 h 5.582 V 21.965 c -0.183,-1.563 -0.636,-3.039 -1.363,-4.426 -0.726,-1.434 -1.676,-2.684 -2.855,-3.758 -0.454,-0.445 -0.93,-0.828 -1.43,-1.14 -0.5,-0.36 -1.043,-0.649 -1.633,-0.875 C 23.5,11.188 22.43,10.738 21.297,10.426 20.211,10.113 19.098,9.934 17.961,9.891 h -0.609 c -0.18,0 -0.364,-0.024 -0.547,-0.067 z m 79.675,0.199 v 20.665 c 0.047,0.765 0.161,1.5 0.344,2.218 0.227,0.711 0.52,1.407 0.883,2.078 0.27,0.582 0.613,1.141 1.02,1.676 0.41,0.535 0.839,1.051 1.293,1.543 0.546,0.492 1.132,0.942 1.769,1.344 0.637,0.402 1.316,0.738 2.039,1.008 0.59,0.265 1.184,0.445 1.774,0.535 0.632,0.133 1.269,0.223 1.902,0.265 0.363,0.094 0.75,0.137 1.156,0.137 0.41,0.047 0.817,0.067 1.227,0.067 0.406,0 0.816,-0.02 1.226,-0.067 0.407,0 0.817,-0.043 1.223,-0.137 0.727,-0.042 1.43,-0.152 2.109,-0.332 0.68,-0.179 1.313,-0.425 1.907,-0.738 0.632,-0.316 1.246,-0.672 1.836,-1.074 0.589,-0.402 1.136,-0.852 1.632,-1.34 0.5,-0.496 0.93,-1.012 1.293,-1.547 0.41,-0.582 0.75,-1.164 1.024,-1.742 0.316,-0.629 0.562,-1.254 0.746,-1.879 0.183,-0.672 0.293,-1.363 0.34,-2.082 V 10.023 h -5.852 v 18.719 c -0.047,0.492 -0.113,0.985 -0.203,1.477 -0.047,0.492 -0.137,0.984 -0.273,1.476 -0.18,0.539 -0.43,1.051 -0.747,1.543 -0.273,0.45 -0.636,0.852 -1.089,1.207 -0.411,0.36 -0.86,0.672 -1.364,0.942 -0.496,0.269 -1.019,0.492 -1.562,0.668 -0.317,0.047 -0.66,0.09 -1.02,0.136 -0.32,0.043 -0.66,0.09 -1.023,0.133 -0.274,0 -0.543,-0.019 -0.817,-0.066 -0.269,-0.043 -0.543,-0.09 -0.816,-0.133 -0.453,0 -0.93,-0.07 -1.43,-0.203 -0.453,-0.133 -0.906,-0.313 -1.359,-0.535 -0.547,-0.356 -1.043,-0.785 -1.496,-1.274 -0.41,-0.496 -0.774,-1.031 -1.09,-1.613 -0.273,-0.625 -0.477,-1.25 -0.613,-1.879 -0.137,-0.625 -0.203,-1.273 -0.203,-1.941 V 10.023 Z m -11.777,0.133 v 31 h 5.922 v -31 z"
           style="fill:#000000;fill-opacity:1;fill-rule:nonzero;stroke:none"
           id="path14"
           sodipodi:nodetypes="scccccccscccsscccccsscccccccccscccsccccccccccccccccccccccssscccccccscccsscccccsscccccccccscccsccccccccccccccccccccccsscccccccccccsccccccccccscccccccccsssccccccccsccccccsscccccccccccccccscccccccsccccsccccccccccccccccccccccccccccsccccccc" /><g
           id="g842"><path
             id="path839"
             style="fill:#000000;fill-opacity:1;stroke:none;stroke-width:3.82679"
             d="m 91.085045,3.7837498 a 3.375,3.375 0 0 1 -3.375,3.375 3.375,3.375 0 0 1 -3.375,-3.375 3.375,3.375 0 0 1 3.375,-3.37499998 3.375,3.375 0 0 1 3.375,3.37499998 z" /></g></g></g></g></svg>
