<?xml version="1.0" ?><svg enable-background="new 0 0 64 64" version="1.1" viewBox="0 0 64 64" xml:space="preserve" xmlns="http://www.w3.org/2000/svg" xmlns:xlink="http://www.w3.org/1999/xlink"><g id="Glyph_copy_2"><path d="M52.257,20.257c-3.827,0-7.217,1.839-9.36,4.673L23.064,14.825c0.267-0.984,0.422-2.013,0.422-3.082   C23.486,5.258,18.228,0,11.743,0S0,5.258,0,11.743s5.258,11.743,11.743,11.743c3.989,0,7.507-1.993,9.63-5.033l19.68,10.027   c-0.349,1.111-0.538,2.293-0.538,3.52c0,1.227,0.189,2.409,0.538,3.52L21.373,45.548c-2.122-3.04-5.641-5.034-9.63-5.034   C5.258,40.514,0,45.772,0,52.257S5.258,64,11.743,64s11.743-5.258,11.743-11.743c0-1.068-0.155-2.098-0.422-3.081L42.897,39.07   c2.144,2.834,5.533,4.673,9.36,4.673C58.742,43.743,64,38.485,64,32C64,25.514,58.742,20.257,52.257,20.257z"/></g></svg>