<svg width="118" height="257" xmlns="http://www.w3.org/2000/svg" xmlns:xlink="http://www.w3.org/1999/xlink" xml:space="preserve" overflow="hidden"><g transform="translate(-460 -111)"><path d="M162.031 51.1675C157.321 51.1675 153.503 47.3494 153.503 42.6396 153.503 37.9298 157.321 34.1117 162.031 34.1117 166.74 34.1117 170.558 37.9298 170.558 42.6396 170.558 47.3494 166.74 51.1675 162.031 51.1675Z" stroke="#000000" stroke-width="17.0558" fill="none" transform="matrix(1 0 0 1.00454 391.505 111)"/><path d="M162.031 136.447C157.321 136.447 153.503 132.629 153.503 127.919 153.503 123.209 157.321 119.391 162.031 119.391 166.74 119.391 170.558 123.209 170.558 127.919 170.558 132.629 166.74 136.447 162.031 136.447Z" stroke="#000000" stroke-width="17.0558" fill="none" transform="matrix(1 0 0 1.00454 391.505 111)"/><path d="M162.031 221.726C157.321 221.726 153.503 217.907 153.503 213.198 153.503 208.489 157.321 204.67 162.031 204.67 166.74 204.67 170.558 208.489 170.558 213.198 170.558 217.907 166.74 221.726 162.031 221.726Z" stroke="#000000" stroke-width="17.0558" fill="none" transform="matrix(1 0 0 1.00454 391.505 111)"/><path d="M93.8071 51.1675C89.0973 51.1675 85.2792 47.3494 85.2792 42.6396 85.2792 37.9298 89.0973 34.1117 93.8071 34.1117 98.5169 34.1117 102.335 37.9298 102.335 42.6396 102.335 47.3494 98.5169 51.1675 93.8071 51.1675Z" stroke="#000000" stroke-width="17.0558" fill="none" transform="matrix(1 0 0 1.00454 391.505 111)"/><path d="M93.8071 136.447C89.0973 136.447 85.2792 132.629 85.2792 127.919 85.2792 123.209 89.0973 119.391 93.8071 119.391 98.5169 119.391 102.335 123.209 102.335 127.919 102.335 132.629 98.5169 136.447 93.8071 136.447Z" stroke="#000000" stroke-width="17.0558" fill="none" transform="matrix(1 0 0 1.00454 391.505 111)"/><path d="M93.8071 221.726C89.0973 221.726 85.2792 217.907 85.2792 213.198 85.2792 208.489 89.0973 204.67 93.8071 204.67 98.5169 204.67 102.335 208.489 102.335 213.198 102.335 217.907 98.5169 221.726 93.8071 221.726Z" stroke="#000000" stroke-width="17.0558" fill="none" transform="matrix(1 0 0 1.00454 391.505 111)"/></g></svg>