<?xml version="1.0" ?><svg enable-background="new 0 0 64 64" version="1.1" viewBox="0 0 64 64" xml:space="preserve" xmlns="http://www.w3.org/2000/svg" xmlns:xlink="http://www.w3.org/1999/xlink"><g id="Glyph_copy_2"><path d="M61,4.709H3c-1.65,0-3,1.35-3,3v37.667c0,1.65,1.35,3,3,3h24v6.916h-9.125v4h28.25v-4H37v-6.916h24c1.65,0,3-1.35,3-3   V7.709C64,6.059,62.65,4.709,61,4.709z M2.242,44.697l4.526-3.437h7.954l-4.51,3.437H2.242z M13.674,44.697l4.526-3.437H45.8   l4.525,3.437H13.674z M53.788,44.697l-4.51-3.437h7.954l4.526,3.437H53.788z"/></g></svg>